<svg width="30" height="33" viewBox="0 0 30 33" xmlns="http://www.w3.org/2000/svg" style="fill:#E74694;" >
    <g transform="matrix(0.937268,0,0,0.937268,-0.746494,-6.97695)">
        <path d="M10.551,29.123L11.003,29.123C11.154,29.116 11.302,29.073 11.433,28.997C11.543,28.913 11.614,28.788 11.633,28.651C11.657,28.438 11.657,28.223 11.633,28.01C11.633,27.748 11.633,27.412 11.549,26.961C11.522,26.608 11.476,26.258 11.412,25.911C11.375,25.678 11.304,25.451 11.202,25.239C11.142,25.096 11.055,24.928 10.908,24.892C10.733,24.85 10.387,24.81 10.152,24.987C10.019,25.087 10.152,25.575 10.152,25.722L10.551,29.123ZM14.698,26.751C14.714,27.016 14.714,27.283 14.698,27.549C14.687,27.813 14.656,28.076 14.604,28.336C14.551,28.591 14.467,28.838 14.352,29.071C14.246,29.298 14.1,29.504 13.921,29.68C13.739,29.871 13.522,30.024 13.281,30.131C12.994,30.254 12.689,30.328 12.378,30.352C12.03,30.399 11.676,30.399 11.328,30.352C11.072,30.308 10.822,30.234 10.583,30.131L10.688,31.307C10.691,31.42 10.72,31.532 10.772,31.633C10.81,31.697 10.864,31.752 10.929,31.79C10.987,31.823 11.052,31.845 11.118,31.853L11.307,31.853C11.357,31.863 11.404,31.885 11.444,31.916C11.489,31.956 11.515,32.013 11.517,32.073C11.557,32.453 11.343,32.816 10.992,32.966C10.454,33.214 9.873,33.354 9.281,33.375C8.959,33.401 8.636,33.401 8.315,33.375C8.065,33.362 7.818,33.316 7.58,33.239C7.4,33.183 7.257,33.061 7.118,32.934C6.867,32.705 6.9,32.338 6.919,32.283C6.979,32.111 7.333,32.266 7.528,32.063C7.577,32.011 7.62,31.953 7.643,31.885C7.667,31.777 7.667,31.666 7.643,31.559L7.15,25.974C7.14,25.865 7.111,25.758 7.066,25.659C7.03,25.592 6.975,25.537 6.908,25.501C6.853,25.469 6.793,25.448 6.73,25.438L6.541,25.438C6.488,25.428 6.437,25.407 6.394,25.375C6.338,25.328 6.304,25.259 6.299,25.186C6.278,25.008 6.314,24.827 6.404,24.672C6.504,24.511 6.646,24.381 6.814,24.294C7.033,24.179 7.266,24.091 7.507,24.031C7.831,23.956 8.161,23.904 8.493,23.874C8.811,23.834 9.132,23.834 9.449,23.874C9.643,23.897 9.82,23.995 9.942,24.147C10.037,24.063 10.142,23.99 10.257,23.906C10.384,23.827 10.517,23.76 10.656,23.706C10.82,23.639 10.989,23.583 11.16,23.538C11.364,23.489 11.571,23.453 11.78,23.433C12.089,23.407 12.401,23.432 12.703,23.507C13.22,23.649 13.67,23.969 13.974,24.409C14.122,24.631 14.249,24.867 14.352,25.113C14.458,25.37 14.538,25.638 14.593,25.911C14.656,26.18 14.698,26.454 14.719,26.73"/>
        <path d="M21.144,23.927C20.784,24.125 20.613,24.45 20.462,24.819C20.028,25.88 19.856,27.168 19.801,28.304C19.777,28.781 19.698,29.838 20.378,29.984C20.378,29.984 20.693,30.05 20.819,29.974C21.167,29.762 21.336,29.38 21.47,29.018C21.775,28.192 21.946,27.262 22.079,26.394C22.143,25.971 22.244,25.213 22.184,24.766C22.111,24.233 21.762,23.731 21.144,23.927ZM19.643,31.843C19.121,31.666 18.594,31.488 18.11,31.223C17.691,30.994 17.3,30.704 16.955,30.373C15.709,29.172 15.239,27.316 15.633,25.648C16.503,21.956 20.872,21.107 23.927,22.677C27.22,24.37 27.124,29.243 24.147,31.223C22.854,32.083 21.117,32.215 19.643,31.843Z"/>
        <path d="M17.589,13.474C18.636,13.41 18.996,13.997 18.992,14.362C18.981,15.562 17.308,15.449 17.032,15.318C16.785,15.2 16.387,14.971 16.378,14.572C16.371,14.251 16.615,13.533 17.589,13.474ZM19.297,19.486C19.309,19.664 19.343,19.766 19.486,19.864L19.633,19.916L19.78,19.916L19.895,19.969C20.21,20.23 19.689,20.701 19.528,20.798C18.819,21.223 17.585,21.336 16.819,21.018C16.605,20.93 16.123,20.577 16.294,20.252L16.399,20.178L16.535,20.178L16.672,20.105C16.783,20.001 16.817,19.815 16.798,19.675L16.651,17.575C16.649,17.403 16.592,17.047 16.315,17.197C16.053,17.338 16.033,17.185 16.052,17.071C16.115,16.71 16.116,16.547 16.472,16.357C17.014,16.068 17.717,16.01 18.32,16.028C18.492,16.033 18.716,16.069 18.866,16.168C19.095,16.318 19.107,16.673 19.129,16.903L19.297,19.486Z"/>
        <path d="M6.205,18.814C6.166,18.513 6.11,18.215 6.037,17.921C5.975,17.671 5.887,17.428 5.774,17.197C5.697,17.009 5.578,16.84 5.428,16.703C5.318,16.583 5.16,16.517 4.997,16.525C4.893,16.533 4.794,16.573 4.714,16.64C4.645,16.69 4.594,16.76 4.567,16.84C4.555,16.93 4.555,17.022 4.567,17.113L4.567,17.417L5.06,20.882C5.07,20.985 5.091,21.087 5.123,21.186C5.146,21.275 5.181,21.36 5.228,21.438C5.279,21.501 5.344,21.552 5.417,21.585C5.516,21.618 5.623,21.618 5.722,21.585C5.881,21.566 6.021,21.472 6.1,21.333C6.199,21.176 6.267,21.002 6.299,20.819C6.322,20.525 6.322,20.231 6.299,19.937C6.299,19.601 6.205,18.814 6.205,18.814ZM4.892,15.717C5.313,15.659 5.739,15.641 6.163,15.664C6.52,15.689 6.873,15.76 7.213,15.874C7.492,15.973 7.754,16.115 7.99,16.294C8.205,16.467 8.395,16.668 8.556,16.892C8.715,17.123 8.842,17.374 8.934,17.638C9.029,17.907 9.096,18.185 9.134,18.467C9.179,18.78 9.204,19.096 9.207,19.412C9.207,19.713 9.168,20.013 9.092,20.304C9.019,20.592 8.898,20.865 8.735,21.113C8.553,21.378 8.325,21.609 8.063,21.795C7.738,22.017 7.385,22.193 7.013,22.32C6.528,22.483 6.029,22.599 5.522,22.667L3.78,22.908C3.477,22.948 3.172,22.969 2.866,22.971C2.632,22.98 2.398,22.951 2.173,22.887C2.004,22.848 1.848,22.764 1.722,22.646C1.609,22.533 1.538,22.384 1.522,22.226C1.499,22.172 1.499,22.111 1.522,22.058C1.564,22.024 1.61,21.996 1.659,21.974L1.837,21.9C1.904,21.88 1.965,21.844 2.016,21.795C2.054,21.741 2.082,21.681 2.1,21.617C2.123,21.517 2.123,21.413 2.1,21.312L1.627,18.016C1.617,17.912 1.585,17.812 1.533,17.722C1.506,17.667 1.471,17.618 1.428,17.575C1.362,17.564 1.294,17.564 1.228,17.575L0.882,17.575C0.837,17.539 0.811,17.485 0.808,17.428C0.779,17.263 0.805,17.093 0.882,16.945C0.972,16.794 1.098,16.667 1.249,16.577C1.451,16.461 1.666,16.369 1.89,16.304C2.183,16.227 2.481,16.167 2.782,16.126L4.892,15.717Z"/>
        <path d="M32.672,23.874C32.707,23.618 32.446,23.884 32.399,23.622C32.382,23.529 32.385,23.433 32.399,23.339L32.619,22.142C32.779,21.633 32.889,21.004 32.787,20.567C32.689,20.143 32.402,19.746 32.01,19.517C31.757,19.371 31.48,19.271 31.192,19.223C30.925,19.174 30.654,19.152 30.383,19.16C30.175,19.173 29.968,19.202 29.764,19.244C29.582,19.283 29.406,19.343 29.239,19.423C29.21,19.326 29.156,19.239 29.081,19.171L28.955,19.066L28.766,18.961L28.514,18.866L28.189,18.782C27.943,18.736 27.694,18.708 27.444,18.698C27.256,18.669 27.065,18.669 26.877,18.698C26.731,18.727 26.597,18.796 26.488,18.898C26.381,18.996 26.314,19.131 26.299,19.276C26.277,19.315 26.277,19.363 26.299,19.402C26.323,19.437 26.356,19.466 26.394,19.486L26.53,19.549L26.656,19.633C26.696,19.678 26.725,19.732 26.74,19.79C26.762,19.876 26.762,19.966 26.74,20.052L26.331,22.215C26.318,22.3 26.289,22.382 26.247,22.457C26.21,22.504 26.163,22.543 26.11,22.572C26.058,22.582 26.005,22.582 25.953,22.572L25.806,22.572C25.768,22.561 25.728,22.561 25.69,22.572C25.65,22.603 25.623,22.648 25.617,22.698C25.591,22.84 25.61,22.987 25.669,23.118C25.736,23.248 25.833,23.36 25.953,23.444C26.113,23.558 26.29,23.647 26.478,23.706C26.714,23.787 26.956,23.85 27.202,23.895C27.649,23.982 28.109,23.982 28.556,23.895C28.852,23.846 29.084,23.613 29.134,23.318C29.151,23.274 29.151,23.225 29.134,23.181C29.115,23.152 29.09,23.126 29.06,23.108L28.955,23.045C28.916,23.023 28.881,22.994 28.85,22.961C28.817,22.914 28.795,22.86 28.787,22.803C28.773,22.716 28.773,22.628 28.787,22.541L29.186,20.388C29.195,20.301 29.228,20.217 29.281,20.147C29.326,20.081 29.383,20.024 29.449,19.979C29.516,19.935 29.591,19.903 29.669,19.885L29.9,19.885C30.084,19.913 30.234,20.05 30.278,20.231C30.329,20.494 30.329,20.765 30.278,21.029L29.953,22.772C29.941,22.855 29.916,22.937 29.879,23.013C29.879,23.013 29.827,23.162 29.772,23.146C29.491,23.061 29.452,23.132 29.438,23.265C29.424,23.404 29.396,23.541 29.438,23.675C29.501,23.81 29.599,23.926 29.722,24.01C29.876,24.119 30.046,24.204 30.226,24.262C30.455,24.344 30.69,24.408 30.929,24.451C31.172,24.496 31.417,24.524 31.664,24.535C31.838,24.539 32.011,24.517 32.178,24.472C32.305,24.429 32.417,24.353 32.504,24.252C32.593,24.143 32.653,24.013 32.672,23.874Z"/>
        <path d="M29.155,16.262C29.819,16.678 30.825,17.475 30.541,18.068C30.275,18.624 28.882,18.068 28.661,17.386C28.483,16.997 28.64,16.178 29.155,16.262Z"/>
        <path d="M14.824,17.365L14.142,18.698C13.813,19.314 13.529,19.871 13.291,20.367C13.166,20.612 13.058,20.865 12.966,21.123C12.957,21.147 12.952,21.172 12.952,21.197C12.952,21.312 13.047,21.407 13.162,21.407C13.167,21.407 13.171,21.407 13.176,21.407L13.743,21.354C14.047,21.354 14.194,21.165 14.793,20.861C14.821,20.847 14.852,20.84 14.884,20.84C14.967,20.84 15.043,20.89 15.076,20.966C15.159,21.137 15.209,21.322 15.223,21.512C15.256,21.667 15.209,21.829 15.097,21.942C14.89,22.061 14.654,22.123 14.415,22.121L10.215,22.457C9.932,22.457 9.785,22.362 9.753,22.1C9.757,21.917 9.811,21.739 9.911,21.585C10.037,21.375 10.299,20.924 10.73,20.22C11.073,19.668 11.385,19.097 11.664,18.509C11.801,18.205 11.916,17.932 12.01,17.68C12.017,17.659 12.02,17.638 12.02,17.616C12.02,17.495 11.92,17.395 11.799,17.395C11.793,17.395 11.786,17.396 11.78,17.396L11.339,17.459C10.93,17.545 10.539,17.701 10.184,17.921C10.09,17.973 9.972,17.945 9.911,17.858C9.774,17.662 9.691,17.435 9.669,17.197C9.643,17.068 9.683,16.934 9.774,16.84C9.915,16.732 10.09,16.676 10.268,16.682L14.394,16.357C14.528,16.326 14.668,16.326 14.803,16.357C14.911,16.414 14.977,16.529 14.971,16.651C14.988,16.898 14.937,17.145 14.824,17.365Z"/>
        <path d="M25.491,15.927C26.337,16.81 25.942,18.406 24.514,18.625C23.959,18.71 22.835,18.467 22.835,18.467C22.791,18.887 22.883,19.311 23.097,19.675C23.286,19.979 23.633,20.063 24.147,20.105C24.573,20.164 25.007,20.075 25.375,19.853C25.542,20.032 25.629,20.27 25.617,20.514C25.617,20.819 25.343,21 24.882,21.081C22.511,21.5 21.72,20.775 21.113,20.241C20.653,19.646 20.469,18.881 20.609,18.142C20.645,17.277 21.023,16.461 21.659,15.874C22.261,15.35 23.062,15.113 23.853,15.223C24.47,15.232 25.08,15.497 25.491,15.927ZM23.223,16.525L23.16,16.63C23.062,16.832 22.995,17.048 22.961,17.27C22.929,17.412 22.904,17.556 22.887,17.701C23.236,17.736 23.574,17.818 24.084,17.701C24.157,17.684 24.191,17.595 24.21,17.522C24.252,17.311 24.252,17.093 24.21,16.882C24.183,16.698 24.089,16.53 23.948,16.409C23.798,16.284 23.587,16.26 23.412,16.346C23.336,16.391 23.272,16.452 23.223,16.525Z"/>
    </g>     
</svg>
