<svg width="800" height="450" viewBox="0 0 800 450" xmlns="http://www.w3.org/2000/svg" xmlns:xlink="http://www.w3.org/1999/xlink">
                                    <defs>
                                        <linearGradient x1="50%" y1="0%" x2="50%" y2="100%" id="browser-a">
                                            <stop stop-color="#F6F8FA" stop-opacity=".48" offset="0%"></stop>
                                            <stop stop-color="#F6F8FA" offset="100%"></stop>
                                        </linearGradient>
                                        <linearGradient x1="50%" y1="100%" x2="50%" y2="0%" id="browser-b">
                                            <stop stop-color="#F6F8FA" stop-opacity=".48" offset="0%"></stop>
                                            <stop stop-color="#F6F8FA" offset="100%"></stop>
                                        </linearGradient>
                                        <linearGradient x1="100%" y1="-12.816%" x2="0%" y2="-12.816%" id="browser-c">
                                            <stop stop-color="#F6F8FA" stop-opacity="0" offset="0%"></stop>
                                            <stop stop-color="#E3E7EB" offset="50.045%"></stop>
                                            <stop stop-color="#F6F8FA" stop-opacity="0" offset="100%"></stop>
                                        </linearGradient>
                                        <filter x="-500%" y="-500%" width="1000%" height="1000%" filterUnits="objectBoundingBox" id="dropshadow-1">
                                            <feOffset dy="16" in="SourceAlpha" result="shadowOffsetOuter"></feOffset>
                                            <feGaussianBlur stdDeviation="24" in="shadowOffsetOuter" result="shadowBlurOuter"></feGaussianBlur>
                                            <feColorMatrix values="0 0 0 0 0.12 0 0 0 0 0.17 0 0 0 0 0.21 0 0 0 0.2 0" in="shadowBlurOuter"></feColorMatrix>
                                        </filter>
                                    </defs>
                                    <g fill="none" fill-rule="evenodd">
                                          <style>
                                            .st0,.st11{fill-rule:evenodd;clip-rule:evenodd;fill:#fff}.st11{fill:#e3e7eb}
                                          </style>
                                          <path d="M4 0h792c2.2 0 4 1.8 4 4v442c0 2.2-1.8 4-4 4H4c-2.2 0-4-1.8-4-4V4c0-2.2 1.8-4 4-4z" class="st0"></path>
                                          <path d="M4 0h792c2.2 0 4 1.8 4 4v442c0 2.2-1.8 4-4 4H4c-2.2 0-4-1.8-4-4V4c0-2.2 1.8-4 4-4z" class="st0"></path>
                                          <path fill="#cbb2d7" fill-rule="evenodd" d="M54.5 67h177.9c4.2 0 7.5 3.4 7.5 7.5v279c0 4.2-3.4 7.5-7.5 7.5H54.5c-4.2 0-7.5-3.4-7.5-7.5v-279c0-4.1 3.4-7.5 7.5-7.5z" clip-rule="evenodd"></path>
                                          <path fill="#b33518" d="M141.1 300.3c-2.4-1-4.7-2.3-7-3.7-.6-.4-.9-1-1.4-1.4-2.4-2-4.4-4.4-6.6-6.6-1.4-1.5-2.6-3.1-3.7-4.7-1-1.6-2.2-3.1-3.3-4.5-.3-.3-.4-.7-.6-1.1-.8-2-2.1-3.6-3.2-5.4-1.8-3-2.8-6.2-3.1-9.5-.5-4.9-.4-9.7 1.9-14.3 2-4.1 4.9-7 8.8-9.2 3.5-2 7.4-2.6 11.5-2.2 1.5.1 3 .2 4.5.7-.8 2.2 1.2-3 .1-1-.3.5-.7 1.1.1 1.5.7.3 1.1.1 1.4-.7 1.6-3.4 0 .2 2.4-2.7 2.2-2.8 5.1-4.8 8.1-6.8 3.4-2.2 7-3.1 11-3 3 .1 5.9-.2 8.8 1.2 3.7 1.8 6.2 4.7 7.6 8.3 1.1 2.8 1.5 6 1.5 9.1 0 4.9-.7 9.6-2 14.3-.1.4-.1.9-.1 1.3 0 .1-.1.2-.1.3-.4.2-.3.6-.4.9 0 .3-.1.6-.1.8-.4.8-.6 1.7-.6 2.6 0 .1-.1.2-.1.3-.1.2-.3.4-.4.6-.3.2-.2.6-.3.9-.3.2-.3.5-.3.9-1.3 2.6-2.2 5.2-3.6 7.8-1 2-2.3 3.8-3.5 5.7-2.1 3.3-4 6.8-6.7 9.7-3.5 3.8-6.7 8-12 9.6-2.7.7-5.6 1.2-8.6.3z"></path>
                                          <path fill="#fae4bb" d="M172.3 221.5c-.3.3-.2.5-.1.7 1.9 2.6 3.1 6.1 4.8 9-10.4-12-28.7-6.1-36.5 5.8-11.3-.9-22.1.2-27.2 12.3h-.5c1.9-7.6 6.3-14.4 6.9-22.4 8.9 5.7 12.3-3.8 10-11.5 5.7 2.6 11.9.5 13-6.2 1.6-4.8-2-9-1.2-13.8.9-3.3 2.9-6.3 3.7-9.6.9-1.8 1 2.8.9 3.3-4.3 12.7 4.3 12 7 22 .4 10.8 12.4 12.3 13.4.8 1.1 2.7 2.5 5.2 4.4 7.4 0 .3 0 .4.3.5 0 .3 0 .5.3.6-.2.7.2 1 .8 1.1z"></path>
                                          <path fill="#f1a406" d="M137.5 152.5c1 5.1 3.1 10.1 6.5 14 0 .1 0 .2.1.2.1 1.2 1 2 1.5 2.9 0 .1 0 .2.1.2 11.4 10.3 1.9 31.5 12.2 33.6 4.6 1.3 8.2-2.4 8-6.9 2.6.9 4.3.6 6.4-.5.4 18.2-3.3 13.2 6.1 31.9-.5 5.6-2.1-3-3.6-4-3.4-5.5-10-12.2-6-19.1-3.7.3-4.7 6.1-4.8 9.3-.7 5.2-7.8 5.4-9.1.4-.6-4.6-2.1-9.1-6-12.4-6.6-5.9 1.9-14.3-4.4-22.1-.6-1-.5-2.4-1.8-2.9-.9-.9-1.7-.1-.8.8 5.9 7.4-5.4 15.6-2 23.3 6.5 17.4-17.3 19.1-11.2.2 2.1-3.5-2.2-2.2-2 3.6-1.4 6.7 7.7 21.2-3.7 22.3-5.5-1.6-2.9-10.2-6-11 3.1 14.1-4.3 24.7-6.8 38.1-3.5-13.6 2.1-27.3 4.7-40.7.9-1.4 0-7.4 2.4-5.9 1.2 1.3 3.4.7 4.6-.4.6-.5.7-1.1.5-1.8.7-.9.4-2.2.9-3.3-.7-6.9-5.4-13.2-2.9-20.5 1.6-4.6 3.5-9 4.1-14 .7 0 .9 1 .9 1.7-.1 4.8-2.7 9.4-2.3 14.2.2 8 13 7.6 13-.5.8-9.6-2.8-18.9-2.3-28.5.5-3.8 1.5-8.3 2.3-12.5.3-.2.4-.5.5-.9.8 3.8.1 7.6.9 11.2z"></path>
                                          <path fill="#1a1514" d="M180.1 230.4c-.2-1-.6-2.3-1.6-2.5v3.9c-1.1-4.8-4.5-8.9-7-13.1-2.6-4.2-4.6-9.4-2.8-13.9-5.5 1.6-2.5 11.2-7.8 13.1-4.6 1.1-6.9-4.3-6.7-8.1-4.7 9.7 12 13.4 11.8 2.6 1.9 2.6 3.6 5.4 5.3 8.1h-.1c2.2 3.2 4 6.9 5.8 10.5-12.7-12.2-26.9-4-37.5 5.7-10.5-.4-21.4 2.8-26.6 12.7 2.4-7.4 4.8-14.9 7.2-22.3 7 5 12.7-5.3 9.5-11.6 21.4 5.2 7-20.7 15.9-29.9-2.3 17.3 1.6 12.5 7.3 25.6 2.7-4.4-3.4-7.5-5.3-10.8-2.6-7.4 2.8-17.9-5.7-23.4 5.6 8.4-5 18.5-1 29.7-2.2 17-17.8 5.2-11.4-6.9-7.9 5.7 3.8 18.5-2.1 25.9-7 6.2-7.2-5.7-9.7-9.3 1.4 11.9-2.3 23.6-6.6 34.4.5-.3.6-.8.5-1.4.3 1-.9 1.5-.5 2.5 0-.1.1-.1.1-.2-.6.8-.4 1.9-.7 2.7-4-15.5 3.8-30.8 5.6-46 1.4-2.2 6.5 3.5 7.2-4.8-5.2-19.4-3.5-17.3 1.8-35.4 1.8 6.5-5.6 16.3 1.6 21 14.5 3.2 9-16.3 7.7-24.4v.1c-.3-.7.5-12.6-.1-13.1.2 0 .4-1.3.7-2.7.1-.1.1-.1.1-.2h-.1c.4-3.2.9-5.2 2-8.1.3 4.1 0 8.3.8 12.3h-.1c1.5 11.6 13 19 14.5 30.5 1.2 5.9-1.2 12.8 2.3 18 4.4 4.5 11.9 1.3 11.5-5.1 2.1 1 4.4.4 6.3-.4 1.4 3.8-.4 8.9-.6 13 .2 0 .3-.2.3-.4-.4 2.3-.4 4.5.9 6.6 2.9 3.6 2.9 10.6 6.7 12.8-2.3-8.8-9.3-16.7-5.3-26.2 1.1-7.6-3.8-14.7-1.9-22-3.4 1.8-1 7.5-.9 10.8-2.6 14.5-12.2-5.8-5.7-18.8-8.2 7-.5 18.4-1.7 26.8-1.1 4.8-8 4.3-9.4.1-1-2.9-.4-6.3-.4-9.4-1.6-23.6-20.3-26.2-14.8-56.3-14.9 16.4 3.8 49.5-9.7 55.3-11.8-1.7 3.9-24.5-6.7-36.6 5.8 13.4-6.9 27.5-3.6 41.1 1 4.5 4.5 10 1 13.8-8.1 0-1.3-15.6-8.3-19.3 8.2 22-6.7 43.9-3.5 66.3 3.8 19 16.5 44.2 37.2 47.7 27.2-8.3 37.8-45.1 34.3-71zm-6.4-7.9c.3.2.5.5.6.8-.5 0-.6-.4-.6-.8zm-61.6 28.9c-.2.1-.1-.2 0-.2 0 .1.1.1.1.2 0-.1-.1-.1-.1-.2-.1 0-.2.2 0 .2zm.4-.9zm64.9 9.4c-.1 0-.1-.1-.2-.1-.1.5-.7 1-.3 1.5-.1-.1-.1-.2-.2-.3-.1 1.2-1 2.3-.7 3.5 0 0 0-.1-.1-.1-.2.5-.6.8-.6 1.3v-.5c-.4.3-.2.7-.3 1.1v-.2c-8.9 21-27.4 50-48.5 21.9-18.6-16.9-20.7-54.5 12.4-49.2-.2 2.1-4.5 5.9-3 7.3 15.5-30.5 53.3-25.1 41.1 13.7.3.1.3.1.4.1z"></path>
                                          <path fill="#1d1d1b" d="M458.5 131.1c0-.4-.4-.7-1.1-.9-.7-.2-1.8-.3-3.2-.1-.7.1-1.3.2-1.8.3-.4.1-.8.3-1 .5-.2.2-.4.4-.5.6-.1.2-.1.5-.1.8.1.6.4 1 .9 1.4.6.4 1.3.7 2.2 1 .9.3 1.9.6 3.1.9 1.1.3 2.3.6 3.5 1 1.2.4 2.4.8 3.6 1.4 1.2.5 2.2 1.2 3.2 2s1.8 1.8 2.4 2.9c.6 1.1 1.1 2.5 1.2 4 .2 1.8-.1 3.5-.8 4.9-.7 1.4-1.7 2.6-3 3.6s-2.8 1.8-4.5 2.4c-1.7.6-3.5 1-5.4 1.2-1.9.2-3.7.2-5.5 0-1.8-.2-3.5-.5-5-1.1-1.5-.5-2.7-1.2-3.6-2.1-1-.9-1.5-1.9-1.6-3-.1-.7 0-1.3.1-1.9.2-.6.4-1 .7-1.4.3-.4.7-.7 1.1-.9.4-.2.9-.3 1.4-.4.8-.1 1.5-.1 2 .1.5.1 1 .3 1.3.6.4.3.6.6.9.9.2.4.5.7.7 1.1.2.4.5.8.7 1.1.3.4.6.7 1 .9.4.3.9.5 1.5.6.6.1 1.3.1 2.2.1 1.4-.1 2.4-.4 3.1-.7.6-.3.9-.9.9-1.6 0-.3-.3-.5-.8-.7-.5-.2-1.2-.4-2-.6-.8-.2-1.8-.4-2.8-.7-1.1-.2-2.1-.6-3.2-.9-1.1-.4-2.2-.8-3.3-1.3-1.1-.5-2.1-1.2-2.9-1.9-.9-.8-1.6-1.6-2.2-2.7-.6-1-1-2.2-1.1-3.6-.2-1.5-.1-2.8.1-4.1.2-1.2.6-2.3 1.2-3.3s1.3-1.8 2.1-2.5 1.8-1.3 2.8-1.8c1-.5 2.1-.9 3.3-1.2 1.2-.3 2.4-.5 3.7-.6 2.2-.2 4.1-.2 5.7 0 1.6.3 3 .7 4 1.2 1.1.5 1.9 1.2 2.5 2 .6.8.9 1.5 1 2.3.1.5 0 1.1-.2 1.6s-.5 1-.8 1.4c-.4.4-.9.8-1.5 1-.6.3-1.3.5-2.1.5-.9.1-1.6.1-2.2.1-.6 0-1-.1-1.4-.3-.4-.1-.6-.3-.8-.6-.2-.2-.3-.5-.3-.8 0-.3 0-.5.1-.7.1-.2.2-.3.3-.5.1-.2.2-.3.3-.5-.1-.4-.1-.7-.1-1m31.7 24.6c-.7.1-1.3.1-1.8-.1s-.8-.4-1.1-.8c-.3-.4-.5-.8-.6-1.3-.1-.5-.3-1.1-.3-1.6-.1-1-.2-1.9-.2-2.7 0-.8.1-1.6.4-2.3.3-.7.6-1.2 1.1-1.6.5-.4 1.2-.7 2-.8.2 0 .4 0 .6-.1h.7c.2 1 .3 1.9.5 2.8.1.8.3 1.5.4 2.3.1.8.2 1.5.3 2 .1.6.1 1.1.2 1.6 0 .5 0 .9-.2 1.3-.1.4-.3.6-.7.9-.3.1-.7.3-1.3.4m12.5 3.1c2.9-.4 5-1.2 6.4-2.4 1.4-1.1 1.9-2.5 1.7-4.2-.1-.4-.2-.6-.4-.7-.2-.1-.5-.2-.8-.3-.3 0-.6-.1-1-.1s-.7-.1-1-.3c-.3-.2-.6-.4-.9-.8-.3-.4-.4-.9-.6-1.6l-1.3-8.7c-.4-2.4-1-4.5-1.9-6.2-.9-1.7-2.1-3-3.6-4s-3.3-1.6-5.5-1.9c-2.2-.3-4.7-.2-7.5.2-2.5.4-4.6.9-6.4 1.7-1.7.7-3.1 1.5-4.2 2.5-1.1.9-1.8 1.9-2.2 3-.4 1.1-.5 2.2-.4 3.3.1.8.4 1.4.8 1.8.4.5.9.9 1.5 1.1.6.3 1.2.4 1.9.5.7.1 1.5.1 2.2.1.8 0 1.6-.1 2.3-.2.8-.1 1.5-.2 2.2-.3-.2-1.2-.3-2.4-.3-3.4s0-1.9.2-2.6c.2-.7.4-1.3.8-1.8.4-.4.9-.7 1.5-.8.6-.1 1 0 1.5.2.4.2.8.6 1.2 1.3.4.6.7 1.5 1 2.7.3 1.1.6 2.6.9 4.4l-3.5.5c-3.1.5-5.7 1.2-7.7 2.1-2 .9-3.5 2-4.6 3.1-1.1 1.2-1.8 2.5-2.1 3.9-.3 1.4-.4 2.9-.1 4.4.2 1.3.6 2.4 1.2 3.3.6.9 1.4 1.7 2.4 2.3 1 .6 2.2 1 3.6 1.2 1.4.2 2.9.2 4.7-.1.9-.1 1.9-.4 2.9-.7 1-.3 1.9-.8 2.8-1.3.9-.5 1.6-1.1 2.3-1.8.6-.7 1.1-1.4 1.3-2.3.6.8 1.2 1.4 1.9 1.9.7.4 1.4.7 2.2.9.8.2 1.6.2 2.4.2.5.1 1.3 0 2.2-.1m43.9-27.6c-1-.8-2.2-1.5-3.8-1.9-1.6-.4-3.3-.5-5.3-.4-1.9.2-3.5.5-4.9 1-1.4.5-2.5 1-3.5 1.5-1.1.6-2 1.2-2.8 1.9-.3-.5-.7-.9-1.3-1.2-.3-.1-.6-.3-.9-.4-.4-.1-.8-.2-1.3-.3-.5-.1-1-.1-1.6-.2-.6 0-1.3 0-2.1.1-1.7.1-3.2.4-4.5.7-1.3.3-2.4.7-3.3 1.2-.9.5-1.5 1.1-2 1.8-.4.7-.6 1.5-.5 2.5 0 .4.1.6.3.8.2.1.4.2.7.3.3.1.6.1.9.1.3 0 .6.1.9.3.3.2.5.4.7.8.2.3.3.9.4 1.5l1.2 13.4c.1.7 0 1.2-.1 1.6-.2.4-.3.7-.6.9-.2.2-.5.4-.8.5-.3.1-.6.2-.8.3-.3.1-.5.2-.6.4-.2.2-.2.4-.2.8.1 1 .4 1.7.9 2.4.5.6 1.3 1.1 2.3 1.5 1 .4 2.1.6 3.5.7 1.4.1 2.9.1 4.6-.1 3.5-.3 6.2-1 8-2 1.8-1 2.6-2.5 2.5-4.4 0-.4-.1-.6-.3-.8-.2-.1-.3-.3-.6-.3-.2-.1-.5-.1-.7-.2-.3-.1-.5-.2-.7-.3-.2-.2-.4-.4-.6-.8-.2-.4-.3-.9-.3-1.6l-1.1-13.3c0-.6 0-1.1.2-1.6s.4-.9.7-1.3c.3-.4.7-.7 1.1-.9.4-.2.9-.4 1.4-.4 1.3-.1 2.2.4 2.8 1.4.6 1.1 1 2.6 1.1 4.7l.9 10.8c.1.7 0 1.2 0 1.6-.1.4-.2.7-.4.9-.2.2-.3.4-.6.4l-.6.3c-.2.1-.3.2-.4.4-.1.2-.1.4-.1.8.1 1 .4 1.7.9 2.4.5.6 1.2 1.1 2.2 1.5.9.4 2 .6 3.4.7 1.3.1 2.8.1 4.5-.1 1.7-.2 3.2-.4 4.4-.7 1.2-.3 2.2-.7 2.9-1.2.7-.5 1.3-1.1 1.6-1.8.3-.7.4-1.5.3-2.5 0-.4-.1-.6-.3-.8-.1-.1-.3-.3-.5-.3-.2-.1-.4-.1-.7-.2-.2-.1-.5-.2-.7-.4-.2-.2-.4-.5-.6-.9-.2-.4-.3-.9-.3-1.7l-1.1-13.2c-.1-1.1.1-2 .5-2.8.4-.7 1.2-1.1 2.3-1.2.7-.1 1.3 0 1.8.3s.9.6 1.2 1.2c.3.5.6 1.2.8 2 .2.8.3 1.7.4 2.7l.9 10.8c.1.7 0 1.2 0 1.6-.1.4-.2.7-.4.9-.2.2-.3.4-.6.4l-.6.3c-.2.1-.3.2-.4.4-.1.2-.1.4-.1.8.1.9.4 1.7.9 2.4s1.2 1.1 2.2 1.5c.9.4 2.1.6 3.4.7 1.3.1 2.8.1 4.5-.1 1.7-.1 3.2-.4 4.5-.7 1.3-.3 2.4-.7 3.3-1.3.9-.5 1.5-1.1 1.9-1.9.4-.7.6-1.6.5-2.5 0-.4-.1-.6-.3-.8-.2-.1-.4-.2-.7-.3-.3-.1-.6-.1-.9-.2-.3 0-.6-.2-.9-.3-.3-.2-.5-.5-.8-.8-.2-.4-.4-.9-.4-1.6 0-.2 0-.5-.1-1 0-.5-.1-1.3-.2-2.4-.1-1.1-.2-2.6-.4-4.6v-.3c-.1-1.2-.3-2.4-.5-3.6-.2-1.2-.6-2.3-1-3.4s-1-2.1-1.7-3c-.7-.9-1.5-1.7-2.5-2.3-1-.6-2.1-1.1-3.5-1.4-1.3-.3-2.9-.4-4.6-.2-2.3.2-4.2.5-5.6.9-1.4.4-2.6.8-3.5 1.2-.9.4-1.5.8-1.9 1.2-.6.2-1 .5-1.3.7m47.6 20.8c-.6-.2-1-.5-1.3-1.1-.3-.5-.5-1.2-.5-2-.1-.8-.1-1.7 0-2.7.1-1 .2-2 .4-3.1.2-1 .4-2.1.7-3.1.3-1 .5-2 .7-2.9.3-.9.6-1.8.9-2.6.3-.8.7-1.4 1.1-1.9.4-.5.9-.8 1.3-1 .5-.2 1-.2 1.6-.1.6.2 1 .5 1.3 1 .3.5.5 1.2.5 1.9.1.8.1 1.6-.1 2.6-.1.9-.3 1.9-.5 2.9s-.4 2-.7 3.1c-.3 1-.5 2-.8 2.9-.3 1-.6 2-.9 2.8-.3.8-.7 1.5-1.1 2-.4.5-.8.9-1.3 1.1-.3.3-.7.3-1.3.2m-2.8 5.9c2 .6 4 .9 5.8.9 1.8 0 3.5-.1 5.1-.5 1.6-.4 3-1 4.4-1.8 1.3-.8 2.5-1.7 3.5-2.7 1-1 1.9-2.2 2.6-3.5.7-1.3 1.3-2.6 1.6-4 .4-1.3.6-2.7.6-4.1 0-1.4-.1-2.8-.4-4.1-.3-1.4-.8-2.7-1.4-3.9-.7-1.3-1.5-2.4-2.6-3.5-1-1.1-2.3-2.1-3.7-2.9-1.4-.9-3.1-1.5-4.9-2.1-2.1-.6-4.1-.9-6-1-1.9-.1-3.6 0-5.2.4-1.6.3-3.1.8-4.4 1.6-1.3.7-2.5 1.6-3.5 2.6s-1.9 2.1-2.6 3.3c-.7 1.2-1.3 2.5-1.6 3.9-.4 1.3-.6 2.7-.6 4.1 0 1.4.1 2.8.4 4.3.3 1.4.8 2.8 1.5 4.1.7 1.3 1.5 2.6 2.6 3.7s2.3 2.2 3.8 3.1c1.4.8 3.1 1.5 5 2.1m29.1-12.1c0 .9.2 1.6.5 2.1s.7 1 1.1 1.3c.4.3.9.5 1.4.6.5.1 1 .1 1.4.1l20.5-.9c.5 0 .9-.1 1.4-.3.5-.1.9-.4 1.3-.7.4-.3.7-.8 1-1.3.2-.6.3-1.3.3-2.1 0-.9-.2-1.6-.5-2.1s-.6-1-1.1-1.3c-.4-.3-.9-.5-1.4-.6-.5-.1-1-.1-1.4-.1l-20.5.9c-.4 0-.9.1-1.4.2-.5.1-.9.4-1.3.7-.4.3-.7.8-1 1.3-.2.6-.3 1.4-.3 2.2M432 168.6c.1-.7.2-1.3.2-1.9.1-.6.1-1.1.2-1.7.3-.1.5-.1.8-.1h.9c.8.1 1.4.3 1.9.8.5.4.8 1.1 1.1 1.9.2.9.3 2 .3 3.4s-.2 3.2-.4 5.2-.5 3.6-.7 4.9c-.2 1.3-.5 2.3-.8 3-.3.7-.8 1.2-1.3 1.4-.5.2-1.3.3-2.2.2-.4 0-.8-.1-1.1-.2-.4-.1-.7-.3-1-.4l2.1-16.5zm20.1 9.5c.2-1.3.2-2.7.2-4 0-1.4-.1-2.7-.3-4-.2-1.3-.6-2.6-1.1-3.8-.5-1.2-1.2-2.3-2-3.2-.8-.9-1.9-1.7-3.1-2.4-1.2-.6-2.7-1.1-4.3-1.3-1.1-.1-2.2-.2-3.1-.2-.9 0-1.8.1-2.6.3-.8.1-1.5.3-2.1.6-.6.2-1.2.5-1.7.8-.4-.8-1.1-1.4-2.1-1.8-1-.4-2.5-.7-4.4-1-1.8-.2-3.3-.3-4.7-.3-1.4 0-2.6.2-3.6.5s-1.8.8-2.3 1.4c-.6.6-.9 1.4-1 2.3 0 .4 0 .6.2.8.2.2.4.3.6.4.3.1.5.2.8.3.3.1.6.3.8.5.3.2.4.5.6.9.1.4.2.9.1 1.6l-3.3 27.2c-.1.7-.2 1.2-.5 1.5-.2.3-.5.6-.8.7-.3.2-.6.2-.9.3-.3 0-.6.1-.9.1-.3 0-.5.1-.7.3-.2.1-.3.4-.4.8-.1.9 0 1.8.4 2.5s1 1.4 1.9 1.9c.9.6 2 1 3.3 1.4 1.3.4 2.9.7 4.7.9 3.7.5 6.5.4 8.6-.2 2-.6 3.2-1.8 3.4-3.7 0-.4 0-.6-.2-.8-.2-.2-.4-.3-.6-.4-.3-.1-.5-.2-.9-.3-.3-.1-.6-.3-.8-.5-.2-.2-.4-.5-.6-.9-.1-.4-.2-.9-.1-1.6l.7-5.8c.9.7 2 1.3 3.3 1.8 1.3.6 2.9.9 4.8 1.2 1.7.2 3.2.2 4.5-.1 1.3-.3 2.5-.8 3.6-1.5 1-.7 1.9-1.5 2.7-2.5.8-1 1.4-2.1 1.9-3.2.5-1.2.9-2.4 1.3-3.7.3-1.3.6-2.5.7-3.8m22.7 15.6c-.6.1-1.1-.1-1.6-.5s-.9-1-1.2-1.7c-.4-.7-.7-1.6-.9-2.5-.3-1-.5-2-.7-3-.2-1-.3-2.1-.5-3.2-.1-1.1-.2-2.1-.3-3-.1-1-.1-1.9 0-2.7.1-.8.2-1.5.4-2.1.2-.6.5-1.1.9-1.4.4-.4.9-.6 1.4-.6.6-.1 1.1.1 1.6.5.4.4.8.9 1.2 1.6.3.7.6 1.5.8 2.4.2.9.4 1.9.6 2.9.2 1 .3 2.1.4 3.1.1 1.1.2 2.1.3 3 .1 1.1.1 2.1.1 2.9 0 .9-.1 1.6-.3 2.3-.2.6-.4 1.1-.8 1.5-.4.3-.8.5-1.4.5m-.6 6.5c2.1-.2 4-.6 5.8-1.2 1.7-.6 3.3-1.4 4.6-2.3 1.3-.9 2.5-2 3.5-3.2 1-1.2 1.7-2.5 2.3-3.8.6-1.3 1-2.7 1.2-4.2.2-1.4.3-2.9.2-4.3-.1-1.4-.4-2.7-.8-4-.4-1.3-1-2.6-1.8-3.7-.8-1.2-1.7-2.2-2.7-3.2-1.1-.9-2.3-1.7-3.6-2.4-1.4-.6-2.8-1.1-4.5-1.4-1.6-.3-3.4-.4-5.3-.2-2.2.2-4.2.6-6 1.2-1.8.6-3.4 1.3-4.8 2.2-1.4.9-2.6 1.9-3.6 3s-1.8 2.3-2.4 3.6c-.6 1.3-1 2.6-1.3 4-.2 1.4-.3 2.8-.2 4.2.1 1.4.4 2.7.9 4.1.5 1.4 1.1 2.6 1.8 3.9.8 1.2 1.7 2.3 2.8 3.3 1.1 1 2.3 1.9 3.7 2.6 1.4.7 2.9 1.2 4.6 1.5 1.8.4 3.7.5 5.6.3m58-29.2c-.8-1-2-1.8-3.4-2.5-1.5-.7-3.2-1.1-5.1-1.3-1.9-.2-3.5-.1-5 .1-1.4.2-2.7.5-3.7.9-1.2.4-2.2.9-3.1 1.4-.2-.5-.6-1-1.1-1.4-.2-.2-.5-.4-.9-.6-.3-.2-.7-.4-1.2-.5-.5-.2-1-.3-1.6-.4-.6-.1-1.3-.2-2.1-.3-1.7-.1-3.2-.2-4.5-.1-1.3.1-2.5.3-3.4.7-1 .4-1.7.9-2.2 1.5-.5.6-.8 1.4-.9 2.4 0 .4 0 .6.2.8.2.2.4.3.6.4.3.1.5.2.9.3.3.1.6.2.8.5.3.2.4.5.6.9.2.4.2.9.1 1.6l-1.1 13.4c-.1.7-.2 1.2-.4 1.5-.2.3-.5.6-.7.8-.3.2-.6.3-.9.3-.3 0-.6.1-.9.2-.3.1-.5.2-.7.3-.2.1-.3.4-.3.8-.1 1 .1 1.8.5 2.5s1.1 1.3 2 1.8c.9.5 2 .9 3.3 1.2 1.3.3 2.8.5 4.5.7 3.5.3 6.3.1 8.2-.6 1.9-.7 3-2 3.1-3.9 0-.4 0-.6-.1-.8-.1-.2-.3-.3-.5-.4-.2-.1-.4-.2-.7-.3-.2-.1-.5-.2-.7-.5-.2-.2-.4-.5-.5-.9-.1-.4-.1-.9-.1-1.6l1.1-13.3c0-.6.2-1.1.4-1.5.2-.5.5-.8.9-1.1.4-.3.8-.5 1.3-.7.5-.1.9-.2 1.4-.2 1.3.1 2.1.7 2.5 1.9.4 1.2.5 2.8.4 4.8l-.9 10.8c-.1.7-.2 1.2-.3 1.6-.2.3-.3.6-.5.8-.2.2-.4.3-.6.3-.2 0-.4.1-.6.2-.2.1-.3.2-.5.3-.1.1-.2.4-.2.8-.1 1 .1 1.8.5 2.5s1 1.3 1.9 1.8c.9.5 1.9.9 3.2 1.2 1.3.3 2.8.5 4.4.7 1.7.1 3.2.2 4.5.1 1.2-.1 2.3-.3 3.1-.7.8-.4 1.4-.9 1.9-1.5.4-.6.7-1.4.8-2.4 0-.4 0-.6-.1-.8-.1-.2-.3-.3-.5-.4l-.6-.3c-.2-.1-.4-.3-.6-.5-.2-.2-.3-.5-.4-1-.1-.4-.1-1-.1-1.7l1.1-13.2c.1-1.1.4-2 .9-2.6.5-.7 1.4-.9 2.4-.8.7.1 1.3.3 1.7.6.4.3.8.8 1 1.4.2.6.4 1.3.4 2.1.1.8 0 1.7 0 2.7l-.9 10.8c-.1.7-.2 1.2-.3 1.6-.2.3-.3.6-.5.8-.2.2-.4.3-.6.3-.2 0-.4.1-.6.2-.2.1-.3.2-.5.3-.1.1-.2.4-.2.8-.1 1 .1 1.8.5 2.5s1 1.3 1.9 1.8c.9.5 1.9.9 3.2 1.2 1.3.3 2.8.5 4.4.7 1.7.1 3.3.2 4.6.1 1.3-.1 2.5-.3 3.4-.7.9-.4 1.7-.9 2.2-1.5.5-.6.8-1.4.9-2.4 0-.4 0-.6-.2-.8-.2-.2-.4-.3-.6-.4l-.9-.3c-.3-.1-.6-.3-.9-.5s-.5-.5-.6-1c-.1-.4-.2-1-.1-1.7 0-.2 0-.5.1-1 0-.5.1-1.3.2-2.4.1-1.1.2-2.6.4-4.6v-.2c.1-1.2.1-2.4.1-3.6 0-1.2-.2-2.4-.4-3.6-.3-1.2-.6-2.2-1.2-3.3-.5-1-1.2-1.9-2.1-2.7-.9-.8-1.9-1.4-3.2-2-1.3-.5-2.8-.9-4.5-1-2.3-.2-4.2-.2-5.7-.1s-2.7.3-3.6.6c-.9.3-1.6.6-2.1.9-.4.1-.8.3-1.1.4m42.1 19.2c-.5-.2-.9-.6-1.1-1.2-.2-.6-.3-1.3-.3-2.1s.2-1.7.4-2.7c.2-1 .5-2 .8-3 .3-1 .7-2 1.1-3 .4-1 .8-1.9 1.1-2.8.4-.9.8-1.7 1.3-2.4.4-.7.9-1.3 1.4-1.7.5-.4 1-.7 1.5-.8.5-.1 1-.1 1.5.1s.9.6 1.1 1.2c.2.6.3 1.2.3 2s-.2 1.6-.4 2.5c-.2.9-.5 1.9-.9 2.8-.3 1-.7 1.9-1.1 2.9-.4 1-.8 1.9-1.2 2.8-.4 1-.9 1.9-1.3 2.6-.4.8-.9 1.4-1.3 1.9-.5.5-.9.8-1.4.9-.5.3-1 .2-1.5 0m-3.6 5.4c1.9.9 3.8 1.4 5.6 1.7 1.8.3 3.5.4 5.2.2 1.6-.2 3.1-.5 4.6-1.1 1.4-.6 2.7-1.3 3.9-2.2 1.2-.9 2.2-1.9 3.1-3.1.9-1.2 1.6-2.4 2.2-3.7.5-1.3.9-2.6 1.2-3.9.2-1.4.3-2.7.2-4.1-.1-1.4-.4-2.7-.9-4.1-.5-1.3-1.2-2.6-2-3.8-.9-1.2-2-2.4-3.3-3.4-1.3-1-2.8-2-4.6-2.7-2-.9-3.9-1.5-5.8-1.9-1.8-.3-3.6-.5-5.2-.4-1.6.1-3.2.4-4.6.9-1.4.5-2.7 1.2-3.8 2-1.2.8-2.2 1.8-3.1 2.9-.9 1.1-1.6 2.3-2.2 3.6-.6 1.3-1 2.6-1.2 4-.2 1.4-.3 2.8-.2 4.3.1 1.4.4 2.9.9 4.3s1.2 2.8 2.1 4c.9 1.3 2 2.5 3.3 3.6 1.3 1.2 2.8 2.1 4.6 2.9m42.8-35.5c-1.9.4-3.5.9-5 1.7-1.5.7-2.7 1.6-3.8 2.7-1.1 1-2 2.2-2.7 3.4-.7 1.2-1.3 2.5-1.6 3.9-.4 1.4-.6 2.8-.6 4.2 0 1.4.1 2.9.4 4.3.3 1.4.7 2.7 1.3 3.9.6 1.3 1.3 2.5 2.1 3.6.9 1.1 1.8 2.1 2.9 2.9 1.1.9 2.3 1.5 3.7 2.1 1.4.5 2.8.8 4.4 1 1.6.1 3.3 0 5.1-.4 1.8-.4 3.4-.9 4.8-1.6 1.4-.7 2.7-1.6 3.7-2.6s1.9-2.1 2.5-3.3c.7-1.2 1.1-2.5 1.3-3.8v-.4c0-.1 0-.2-.1-.4-.1-.4-.3-.8-.5-1-.3-.3-.6-.4-1-.3-.2 0-.5.2-.9.6-.4.3-1 .7-1.6 1.2-.6.4-1.3.8-2 1.2-.7.4-1.5.7-2.2.8-2.6.5-4.7-.1-6.2-1.7-1.6-1.7-2.7-4.5-3.5-8.6-.2-1-.3-2-.3-2.8 0-.9.1-1.6.3-2.3.2-.6.6-1.2 1-1.6.4-.4 1-.7 1.7-.8.4-.1.8-.1 1.2 0 .4.1.8.2 1.2.4.4.2.8.5 1.1.9.3.4.6.8.9 1.3.3.7.7 1.3 1.1 1.8.4.5.8.8 1.3 1.1.5.2.9.4 1.4.5.5.1.9 0 1.3 0 .5-.1.9-.3 1.3-.5s.7-.6.9-.9c.2-.4.4-.8.5-1.3.1-.5.1-1 0-1.6-.3-1.4-.8-2.6-1.5-3.8-.8-1.1-1.8-2-3.1-2.7-1.3-.7-2.8-1.1-4.7-1.3-1.6-.4-3.7-.3-6.1.2m-172.6 46.4c.1.8.3 1.5.6 2.2.3.6.8 1.1 1.2 1.5.5.4 1 .7 1.7 1 .6.3 1.2.5 1.8.6.6.1 1.2.2 1.8.2h1.5c.5 0 1-.1 1.6-.2.6-.1 1.2-.3 1.8-.5.6-.2 1.2-.5 1.7-.9.6-.4 1.1-.8 1.5-1.3.4-.5.8-1.1 1-1.7.2-.7.3-1.4.2-2.2-.1-.8-.3-1.5-.6-2.2-.3-.6-.7-1.1-1.3-1.5-.5-.4-1.1-.8-1.7-1-.6-.3-1.2-.5-1.9-.6-.6-.1-1.2-.2-1.8-.2h-1.6c-.4 0-.9.1-1.4.2-.5.1-1.1.3-1.7.5-.6.2-1.2.5-1.7.9-.6.4-1.1.8-1.5 1.3-.4.5-.7 1.1-1 1.7-.2.7-.3 1.4-.2 2.2m16.5 13.2c-.1-1.1-.2-2.1-.4-2.8-.2-.7-.6-1.3-1.1-1.7-.6-.4-1.4-.6-2.4-.7-1-.1-2.5-.1-4.2.1-1.8.1-3.4.4-4.7.7-1.4.3-2.5.7-3.4 1.2-.9.5-1.6 1.1-2 1.9-.4.7-.6 1.5-.5 2.5 0 .4.1.6.3.8.2.1.4.2.7.3.3.1.6.1.9.2.3 0 .6.1.9.3.3.2.5.4.7.8.2.4.3.9.4 1.5l1.1 13.3c.1.7 0 1.2-.1 1.6-.2.4-.4.7-.6.9-.2.2-.5.4-.8.5l-.9.3c-.3.1-.5.2-.6.4-.2.2-.2.4-.2.8.1.9.4 1.7.9 2.4.5.6 1.3 1.1 2.3 1.5 1 .4 2.2.6 3.6.7 1.4.1 3 .1 4.8-.1 3.7-.3 6.5-1 8.4-2 1.9-1 2.7-2.5 2.6-4.4 0-.4-.1-.6-.3-.8-.2-.1-.4-.2-.7-.3-.3-.1-.6-.1-.9-.2-.3 0-.6-.1-.9-.3-.3-.2-.5-.4-.7-.8-.2-.4-.3-.9-.4-1.5l-1.8-17.1zm52.4 5.4c-.4 2.3-.9 4.4-1.5 6.3-.5 1.9-1.1 3.4-1.8 4.7-.7 1.3-1.4 2.2-2.2 2.8-.8.6-1.6.8-2.5.7-.7-.1-1.2-.4-1.6-.7-.4-.3-.6-.7-.7-1.2-.1-.5-.2-1-.1-1.6 0-.6.1-1.2.2-1.8l3.8-19.7c.1-.6.3-1.2.4-1.7.2-.5.4-1 .7-1.4.3-.4.7-.7 1.1-.8.5-.2 1-.2 1.7-.1.9.2 1.6.7 2.1 1.6.5.9.8 2 1 3.3.2 1.3.2 2.8 0 4.5 0 1.6-.3 3.3-.6 5.1m-13.3-21.6c-1.9-.4-3.7-.6-5.2-.7-1.5-.1-2.9 0-4 .3s-2 .7-2.7 1.3c-.7.6-1.1 1.4-1.3 2.5-.1.4 0 .7.2.9.2.2.4.4.7.6.3.2.6.3 1 .5s.7.4 1 .6c.3.3.5.6.6 1.1.1.4.1 1 0 1.8l-3.6 18.8c-.1.7-.4 1.3-.7 1.6-.3.4-.6.6-1 .7-.4.1-.7.2-1.1.2-.4 0-.8 0-1.1.1-.3 0-.6.1-.9.2-.3.1-.4.4-.5.8-.2 1-.1 1.9.3 2.7.4.8 1.1 1.5 2 2.2.9.6 2.1 1.2 3.6 1.7s3.2.9 5.1 1.3l9.9 1.9c3.3.6 6.2.9 8.7.9 2.5 0 4.7-.3 6.7-.9 1.9-.6 3.5-1.4 4.9-2.5 1.4-1.1 2.5-2.3 3.4-3.7.9-1.4 1.7-2.9 2.3-4.6.6-1.7 1-3.4 1.4-5.3.3-1.6.5-3.3.5-4.9 0-1.6-.2-3.2-.7-4.7-.4-1.5-1.1-3-2-4.3-.9-1.4-2-2.6-3.5-3.8-1.4-1.1-3.1-2.1-5.1-3-2-.9-4.3-1.6-7-2.1l-11.9-2.2zm56.7 14.9c0-.7 0-1.3.2-1.7.2-.4.4-.7.7-1 .3-.2.6-.4.9-.5.3-.1.7-.2.9-.3.3-.1.5-.3.7-.4.2-.2.3-.5.2-.9-.1-1-.4-1.9-1-2.6-.6-.7-1.4-1.3-2.5-1.7-1.1-.4-2.4-.7-4-.8-1.6-.1-3.4-.1-5.4 0-2 .1-3.7.4-5.2.7-1.5.3-2.8.8-3.8 1.3s-1.8 1.2-2.2 2c-.5.8-.7 1.7-.6 2.7 0 .4.1.7.4.8.2.2.5.3.8.4.3.1.6.1 1 .2.3.1.7.2 1 .4.3.2.6.5.8.9.2.4.4 1 .4 1.7l1.2 18.9c0 .8 0 1.3-.2 1.7-.2.4-.4.7-.7 1-.3.2-.6.4-.9.5l-.9.3c-.3.1-.5.3-.7.4-.2.2-.3.5-.2.9.1 1 .4 1.9 1 2.6.6.7 1.4 1.3 2.5 1.7 1.1.4 2.4.7 3.9.8 1.5.1 3.3.1 5.2 0 4-.3 7.1-.9 9.2-2 2.1-1.1 3.1-2.6 2.9-4.7 0-.4-.1-.7-.4-.8-.2-.2-.5-.3-.8-.4-.3-.1-.6-.2-1-.2-.4-.1-.7-.2-1-.4-.3-.2-.6-.5-.8-.9-.2-.4-.4-1-.4-1.7l-1.2-18.9zm24.4 24.5c2 .3 3.8.5 5.4.5 1.6 0 2.9-.1 4-.4 1.1-.3 2-.8 2.6-1.5.6-.7 1.1-1.5 1.2-2.5.1-.4 0-.7-.2-.9-.2-.2-.4-.4-.7-.5-.3-.1-.6-.3-.9-.4-.3-.1-.6-.3-.9-.6-.3-.3-.5-.6-.6-1.1-.1-.4-.1-1 0-1.8l1.4-8.8 8.2-8.6c.5-.6 1.1-1 1.7-1.3.6-.3 1.1-.5 1.6-.7s1-.2 1.5-.3c.5 0 .9-.1 1.2-.2.4-.1.7-.2.9-.4.2-.2.4-.5.4-.9.1-.8.1-1.6-.1-2.3-.2-.8-.6-1.4-1.1-2.1-.5-.6-1.2-1.2-2.1-1.6-.9-.5-1.9-.8-3.1-1-1.2-.2-2.3-.2-3.2 0-1 .2-1.8.5-2.5.9s-1.3 1-1.7 1.6c-.4.7-.7 1.4-.8 2.2 0 .3 0 .6.1.8.1.2.3.4.5.5.2.2.4.3.7.4.2.1.5.3.7.4.2.1.4.3.5.5.1.2.2.4.1.7 0 .2-.1.5-.3.7-.1.3-.4.6-.7.9l-3.4 3.5c-.2.2-.5.4-.7.6-.2.1-.5.2-.7.2-.3-.1-.7-.3-1-.9l-2-4.6c-.2-.5-.4-.8-.5-1.2-.1-.3-.1-.6-.1-.8.1-.3.2-.6.6-.7.3-.1.7-.2 1-.3.4-.1.7-.2 1.1-.4.3-.2.5-.5.6-.9.2-1 0-1.9-.4-2.8-.4-.8-1.1-1.5-2.1-2.2-1-.6-2.2-1.2-3.6-1.6-1.5-.5-3.2-.8-5.1-1.1-4-.6-7.1-.6-9.4-.1-2.2.6-3.5 1.9-3.8 4-.1.4 0 .7.1 1 .1.2.3.4.6.6.3.2.6.4 1 .5.4.2.7.4 1.2.7.4.3.8.6 1.2 1.1.4.4.8 1 1.1 1.7l5.4 10.7-1.4 8.9c-.1.7-.3 1.3-.6 1.7-.3.4-.5.6-.9.8-.3.2-.7.3-1 .3-.4 0-.7.1-1 .1-.3 0-.6.1-.8.3-.2.1-.4.4-.4.8-.2 1 0 1.9.4 2.8.4.8 1.1 1.6 2.1 2.2 1 .6 2.2 1.2 3.7 1.6 1.4.6 3.1 1 5 1.3m78.8 62.1H655v-5.6l-2.4 4h-.2l-2.4-4v5.7h-1.3v-7.9h1.4l2.4 4 2.4-4h1.4v7.8zm-11.8-3.1v3.1h-1.3v-3.1l-2.8-4.8h1.5l1.9 3.5 1.9-3.5h1.5l-2.7 4.8zm-5.5-4.8v7.9h-1l-3.7-5.4v5.4h-1.3v-7.9h1l3.7 5.4v-5.4h1.3zm-7.6 6.7v1.2H627v-7.9h1.3v6.7h3.2zm-8.3-1.6-1.3-3.6-1.3 3.6h2.6zm.4 1.2h-3.4l-.6 1.6h-1.4l2.9-7.9h1.6l2.9 7.9h-1.4l-.6-1.6zm-9.4 1.8c-1.7 0-3-1.1-3-2.8v-5.3h1.3v5.2c0 .9.5 1.6 1.7 1.6s1.7-.7 1.7-1.6v-5.2h1.3v5.3c0 1.7-1.3 2.8-3 2.8m-7.4 0c-1.6 0-2.6-.8-3.1-1.9l1.1-.7c.3.8.9 1.3 2 1.3 1 0 1.5-.5 1.5-1 0-.7-.6-.9-1.8-1.3-1.2-.4-2.4-.8-2.4-2.3 0-1.5 1.2-2.3 2.5-2.3s2.3.7 2.8 1.7l-1.1.6c-.3-.6-.8-1.1-1.7-1.1-.8 0-1.2.4-1.2 1s.4.9 1.6 1.2c1.3.4 2.6.8 2.6 2.4 0 1.5-1.2 2.4-2.8 2.4m-5.2-.2-3.1-3.8v3.8h-1.3v-7.9h1.3v3.6l3-3.6h1.6l-3.2 3.9 3.3 4.1h-1.6zm-6.2-1.2v1.2h-4.8v-7.9h4.8v1.2h-3.5v2.1h3.2v1.2h-3.2v2.1h3.5zm-9.2 1.4c-1.6 0-2.6-.8-3.1-1.9l1.1-.7c.3.8.9 1.3 2 1.3 1 0 1.5-.5 1.5-1 0-.7-.6-.9-1.8-1.3-1.2-.4-2.4-.8-2.4-2.3 0-1.5 1.2-2.3 2.5-2.3s2.3.7 2.8 1.7l-1.1.6c-.3-.6-.8-1.1-1.7-1.1-.8 0-1.2.4-1.2 1s.4.9 1.6 1.2c1.3.4 2.6.8 2.6 2.4 0 1.5-1.2 2.4-2.8 2.4m-8.1-.2h-1.3v-5.6l-2.4 4h-.2l-2.4-4v5.7h-1.3v-7.9h1.4l2.4 4 2.4-4h1.4v7.8zm-9.3-1.2v1.2H564v-7.9h4.8v1.2h-3.5v2.1h3.2v1.2h-3.2v2.1h3.5zm-8.3-6.7h1.3v7.9h-1.3v-7.9zm-12.4 0h1.4l1.7 6.2 1.8-6.2h1.2l1.8 6.2 1.7-6.2h1.4l-2.2 7.9h-1.5l-1.7-5.8-1.7 5.8h-1.5l-2.4-7.9zm-5 6.8c1.6 0 2.8-1.2 2.8-2.8s-1.2-2.8-2.8-2.8c-1.6 0-2.8 1.2-2.8 2.8s1.2 2.8 2.8 2.8m0 1.3c-2.3 0-4.1-1.8-4.1-4.1s1.8-4.1 4.1-4.1 4.1 1.8 4.1 4.1-1.8 4.1-4.1 4.1m-9.9-4.2h1.9c.7 0 1.2-.6 1.2-1.3 0-.7-.6-1.3-1.2-1.3h-1.9v2.6zm1.6 1.1h-1.5v2.9H532v-7.9h3.2c1.4 0 2.5 1.1 2.5 2.5 0 1-.6 1.9-1.6 2.3l1.8 3.1h-1.4l-1.7-2.9zm-8.4 1.7c1.5 0 2.5-1.2 2.5-2.7 0-1.6-1-2.7-2.5-2.7h-1.8v5.4h1.8m0-6.7c2.2 0 3.8 1.7 3.8 4 0 2.2-1.6 4-3.8 4h-3.1v-7.9h3.1m-4.8 6.6v1.2h-5.3v-1l3.6-5.6h-3.5v-1.2h5.1v1.1l-3.6 5.6h3.7zm-9.8 0v1.2h-5.3v-1l3.6-5.6h-3.5v-1.2h5.1v1.1l-3.6 5.6h3.7zm-8.7-1.6-1.3-3.6-1.3 3.6h2.6zm.4 1.2h-3.4l-.6 1.6h-1.4l2.9-7.9h1.6l2.9 7.9H504l-.5-1.6zm-10.8-2.4h1.9c.7 0 1.2-.6 1.2-1.3 0-.7-.6-1.3-1.2-1.3h-1.9v2.6zm1.5 1.1h-1.5v2.9h-1.3v-7.9h3.2c1.4 0 2.5 1.1 2.5 2.5 0 1-.6 1.9-1.6 2.3l1.8 3.1h-1.4l-1.7-2.9zm-8.7 1.8c1.6 0 2.8-1.2 2.8-2.8s-1.2-2.8-2.8-2.8-2.8 1.2-2.8 2.8 1.2 2.8 2.8 2.8m0 1.3c-2.3 0-4.1-1.8-4.1-4.1s1.8-4.1 4.1-4.1 4.1 1.8 4.1 4.1-1.8 4.1-4.1 4.1m-10.8-3-1.3-3.6-1.3 3.6h2.6zm2 4.3c.1 0 .2 0 .4-.1v.8c-.2.1-.5.2-.8.2-.6 0-1-.3-1-.9 0-.4.3-1 .8-1.5h-.3l-.6-1.6h-3.4l-.6 1.6h-1.4l2.9-7.9h1.6l2.9 7.9c-.4.4-.7.9-.7 1.2-.1.2 0 .3.2.3m-9.6-9.4h1.3v7.9h-1.3v-7.9zm-5.1 8.1c-2.4 0-4.1-1.8-4.1-4.1s1.7-4.1 4.1-4.1c1.4 0 2.7.7 3.4 1.9l-1.1.7c-.4-.8-1.3-1.3-2.3-1.3-1.7 0-2.8 1.2-2.8 2.8s1.1 2.8 2.8 2.8c1 0 1.9-.5 2.3-1.3l1.1.6c-.6 1.2-1.9 2-3.4 2m-8.2 0c-1.6 0-2.6-.8-3.1-1.9l1.1-.7c.3.8.9 1.3 2 1.3 1 0 1.5-.5 1.5-1 0-.7-.6-.9-1.8-1.3-1.2-.4-2.4-.8-2.4-2.3 0-1.5 1.2-2.3 2.5-2.3s2.3.7 2.8 1.7l-1.1.6c-.3-.6-.8-1.1-1.7-1.1-.8 0-1.2.4-1.2 1s.4.9 1.6 1.2c1.3.4 2.6.8 2.6 2.4.1 1.5-1.1 2.4-2.8 2.4m.3-8.9 1.2-1.5h-1.5l-.9 1.5h1.2zm-8.5 7.6c1.6 0 2.8-1.2 2.8-2.8s-1.2-2.8-2.8-2.8-2.8 1.2-2.8 2.8 1.3 2.8 2.8 2.8m0 1.3c-2.3 0-4.1-1.8-4.1-4.1s1.8-4.1 4.1-4.1 4.1 1.8 4.1 4.1-1.8 4.1-4.1 4.1m-5.8-8.1v7.9h-1l-3.7-5.4v5.4h-1.3v-7.9h1l3.7 5.4v-5.4h1.3zm-11.6 6.7c1.5 0 2.5-1.2 2.5-2.7 0-1.6-1-2.7-2.5-2.7h-1.8v5.4h1.8m0-6.7c2.2 0 3.8 1.7 3.8 4 0 2.2-1.6 4-3.8 4h-3.1v-7.9h3.1m-9 6.7c1.6 0 2.8-1.2 2.8-2.8s-1.2-2.8-2.8-2.8-2.8 1.2-2.8 2.8 1.2 2.8 2.8 2.8m0 1.3c-2.3 0-4.1-1.8-4.1-4.1s1.8-4.1 4.1-4.1 4.1 1.8 4.1 4.1-1.8 4.1-4.1 4.1m-4.7-1.4v1.2H410v-2.5l-.7.4v-1.3l.7-.4v-4.1h1.3v3.4l1.6-1v1.3l-1.6 1v2h3.2zm-9.1-2.7c.8 0 1.3-.6 1.3-1.4 0-.8-.6-1.4-1.3-1.4h-1.6v2.8h1.6m0-4c1.5 0 2.6 1.1 2.6 2.6s-1.1 2.6-2.6 2.6h-1.6v2.7h-1.3v-7.9h2.9m236.5-7.2-1.3-3.6-1.3 3.6h2.6zm2 4.3c.1 0 .2 0 .4-.1v.8c-.2.1-.5.2-.8.2-.6 0-1-.3-1-.9 0-.4.3-1 .8-1.5h-.3l-.6-1.6H639l-.6 1.6H637l2.9-7.9h1.6l2.9 7.9c-.4.4-.7.9-.7 1.2-.1.2 0 .3.2.3m-8.4-9.4v7.9h-1l-3.7-5.4v5.4h-1.3v-7.9h1l3.7 5.4v-5.4h1.3zm-10.5 8c-1.6 0-2.6-.8-3.1-1.9l1.1-.7c.3.8.9 1.3 2 1.3 1 0 1.5-.5 1.5-1 0-.7-.6-.9-1.8-1.3-1.2-.4-2.4-.8-2.4-2.3 0-1.5 1.2-2.3 2.5-2.3s2.3.7 2.8 1.7l-1.1.6c-.3-.6-.8-1.1-1.7-1.1-.8 0-1.2.4-1.2 1s.4.9 1.6 1.2c1.3.4 2.6.8 2.6 2.4.1 1.5-1.1 2.4-2.8 2.4m-6.2-2.9-1.3-3.6-1.3 3.6h2.6zm.4 1.2h-3.4l-.6 1.6h-1.4l2.9-7.9h1.6l2.9 7.9h-1.4l-.6-1.6zm-6.3.3v1.2h-4.5v-2.5l-.7.4v-1.3l.7-.4v-4.1h1.3v3.4l1.6-1v1.3l-1.6 1v2h3.2zm-17.2-6.6h1.4l1.7 6.2 1.8-6.2h1.2l1.8 6.2 1.7-6.2h1.4l-2.2 7.9H603l-1.7-5.8-1.7 5.8h-1.5l-2.4-7.9zm-8.3 6.6c1.5 0 2.5-1.2 2.5-2.7 0-1.6-1-2.7-2.5-2.7h-1.8v5.4h1.8m0-6.6c2.2 0 3.8 1.7 3.8 4 0 2.2-1.6 4-3.8 4h-3.1v-7.9h3.1m-6.9 5-1.3-3.6-1.3 3.6h2.6zm.4 1.2h-3.4l-.6 1.6h-1.4l2.9-7.9h1.6l2.9 7.9h-1.4l-.6-1.6zm-6.7-6.3v7.9h-1l-3.7-5.4v5.4h-1.3v-7.9h1l3.7 5.4v-5.4h1.3zm-12.8 0h1.3v7.9h-1.3v-7.9zm-1.6 6.6v1.2h-4.5v-7.9h1.3v6.7h3.2zm-10.3.2c1.6 0 2.8-1.2 2.8-2.8s-1.2-2.8-2.8-2.8c-1.6 0-2.8 1.2-2.8 2.8s1.2 2.8 2.8 2.8m0 1.2c-2.3 0-4.1-1.8-4.1-4.1s1.8-4.1 4.1-4.1 4.1 1.8 4.1 4.1-1.8 4.1-4.1 4.1m-9.9-4.2h1.9c.7 0 1.2-.6 1.2-1.3 0-.7-.6-1.3-1.2-1.3h-1.9v2.6zm1.5 1.2h-1.5v2.9h-1.3v-7.9h3.2c1.4 0 2.5 1.1 2.5 2.5 0 1-.6 1.9-1.6 2.3l1.8 3.1h-1.4l-1.7-2.9zm-4.3-3.8h-2.2v6.7h-1.3V286H531v-1.2h5.8v1.2zm-7.3-1.2v7.9h-1l-3.7-5.4v5.4h-1.3v-7.9h1l3.7 5.4v-5.4h1.3zm-12 6.8c1.6 0 2.8-1.2 2.8-2.8s-1.2-2.8-2.8-2.8c-1.6 0-2.8 1.2-2.8 2.8s1.3 2.8 2.8 2.8m0 1.2c-2.3 0-4.1-1.8-4.1-4.1s1.8-4.1 4.1-4.1 4.1 1.8 4.1 4.1-1.8 4.1-4.1 4.1m-6-.1-3.1-3.8v3.8h-1.3v-7.9h1.3v3.6l3-3.6h1.6l-3.2 3.9 3.3 4.1h-1.6zm-11.5-2.8-1.3-3.6-1.3 3.6h2.6zm.5 1.2h-3.4l-.6 1.6h-1.4l2.9-7.9h1.6l2.9 7.9H501l-.5-1.6zm-8.1-6.3h1.3v7.9h-1.3v-7.9zm-2.2 0v7.9h-1l-3.7-5.4v5.4h-1.3v-7.9h1l3.7 5.4v-5.4h1.3zm-9.8 5.1-1.3-3.6-1.3 3.6h2.6zm.4 1.2h-3.4l-.6 1.6h-1.4l2.9-7.9h1.6l2.9 7.9h-1.4l-.6-1.6zm-16.6-6.3h1.4l1.7 6.2 1.8-6.2h1.2l1.8 6.2 1.7-6.2h1.4l-2.2 7.9h-1.5l-1.7-5.8-1.7 5.8h-1.5l-2.4-7.9zm-2.9 0h1.3v7.9h-1.3v-7.9zm-2.9 7.9-3.1-3.8v3.8H454v-7.9h1.3v3.6l3-3.6h1.6l-3.2 3.9 3.3 4.1h-1.6zm-8.9.1c-1.6 0-2.6-.8-3.1-1.9l1.1-.7c.3.8.9 1.3 2 1.3 1 0 1.5-.5 1.5-1 0-.7-.6-.9-1.8-1.3-1.2-.4-2.4-.8-2.4-2.3 0-1.5 1.2-2.3 2.5-2.3s2.3.7 2.8 1.7l-1.1.7c-.3-.6-.8-1.1-1.7-1.1-.8 0-1.2.4-1.2 1s.4.9 1.6 1.2c1.3.4 2.6.8 2.6 2.4 0 1.4-1.1 2.3-2.8 2.3m-6.4-3.3v3.1h-1.3v-3.1l-2.8-4.8h1.5l1.9 3.5 1.9-3.5h1.5l-2.7 4.8zm-5 1.9v1.2h-5.3v-1.1l3.6-5.6H433v-1.2h5.1v1.1l-3.6 5.6h3.6zm-10.1 0c1.5 0 2.5-1.2 2.5-2.7 0-1.6-1-2.7-2.5-2.7h-1.8v5.4h1.8m0-6.6c2.2 0 3.8 1.7 3.8 4 0 2.2-1.6 4-3.8 4h-3.1v-7.9h3.1m-9 6.7c1.6 0 2.8-1.2 2.8-2.8s-1.2-2.8-2.8-2.8-2.8 1.2-2.8 2.8 1.2 2.8 2.8 2.8m0 1.2c-2.3 0-4.1-1.8-4.1-4.1s1.8-4.1 4.1-4.1 4.1 1.8 4.1 4.1-1.8 4.1-4.1 4.1m192.5-13.7v1.2h-4.8v-7.9h4.8v1.2H608v2.1h3.2v1.2H608v2.1h3.5zm-8.3-6.7h1.3v7.9h-1.3v-7.9zm-1.7 4.4c0 2.2-1.6 3.7-3.9 3.7-2.5 0-4.2-1.8-4.2-4.1s1.8-4.1 4.2-4.1c1.5 0 2.8.8 3.5 1.9l-1.1.6c-.4-.7-1.3-1.3-2.3-1.3-1.7 0-2.9 1.2-2.9 2.9 0 1.6 1.2 2.8 2.9 2.8 1.4 0 2.3-.7 2.6-1.8h-2.6v-1.2h4v.6zm-9.4 2.3v1.2h-4.8v-7.9h4.8v1.2h-3.5v2.1h3.2v1.2h-3.2v2.1h3.5zm-6.4-5.4h-2.2v6.7h-1.3v-6.7H580v-1.2h5.8v1.2zm-8.3 3.8-1.3-3.6-1.3 3.6h2.6zm.4 1.2h-3.4l-.6 1.6h-1.4l2.9-7.9h1.6l2.9 7.9h-1.4l-.6-1.6zm-10.8-2.4h1.9c.7 0 1.2-.6 1.2-1.3 0-.7-.6-1.3-1.2-1.3H567v2.6zm1.5 1.1H567v2.9h-1.3v-7.9h3.2c1.4 0 2.5 1.1 2.5 2.5 0 1-.6 1.9-1.6 2.3l1.8 3.1h-1.4l-1.7-2.9zm-4.4-3.7h-2.2v6.7h-1.3v-6.7h-2.2v-1.2h5.8v1.2zm-9.3 6.8c-1.6 0-2.6-.8-3.1-1.9l1.1-.7c.3.8.9 1.3 2 1.3 1 0 1.5-.5 1.5-1 0-.7-.6-.9-1.8-1.3-1.2-.4-2.4-.8-2.4-2.3 0-1.5 1.2-2.3 2.5-2.3s2.3.7 2.8 1.7l-1.1.6c-.3-.6-.8-1.1-1.7-1.1-.8 0-1.2.4-1.2 1s.4.9 1.6 1.2c1.3.4 2.6.8 2.6 2.4 0 1.5-1.2 2.4-2.8 2.4m-7.7-1.4v1.2h-4.8v-7.9h4.8v1.2h-3.5v2.1h3.2v1.2h-3.2v2.1h3.5zm-7-6.7v7.9h-1l-3.7-5.4v5.4h-1.3v-7.9h1l3.7 5.4v-5.4h1.3zm-7.5 6.7v1.2H528v-7.9h1.3v6.7h3.3zm-10.4.1c1.6 0 2.8-1.2 2.8-2.8s-1.2-2.8-2.8-2.8c-1.6 0-2.8 1.2-2.8 2.8s1.2 2.8 2.8 2.8m0 1.3c-2.3 0-4.1-1.8-4.1-4.1s1.8-4.1 4.1-4.1 4.1 1.8 4.1 4.1-1.8 4.1-4.1 4.1m-9.3-1.4c1.5 0 2.5-1.2 2.5-2.7 0-1.6-1-2.7-2.5-2.7h-1.8v5.4h1.8m0-6.7c2.2 0 3.8 1.7 3.8 4 0 2.2-1.6 4-3.8 4h-3.1v-7.9h3.1m-8.7 6.6c1.5 0 2.5-1.2 2.5-2.7 0-1.6-1-2.7-2.5-2.7h-1.8v5.4h1.8m0-6.7c2.2 0 3.8 1.7 3.8 4 0 2.2-1.6 4-3.8 4h-3.1v-7.9h3.1m-8.9 6.7c1.6 0 2.8-1.2 2.8-2.8s-1.2-2.8-2.8-2.8-2.8 1.2-2.8 2.8 1.2 2.8 2.8 2.8m0 1.3c-2.3 0-4.1-1.8-4.1-4.1s1.8-4.1 4.1-4.1 4.1 1.8 4.1 4.1-1.8 4.1-4.1 4.1m-10.5-8.1h1.3v7.9h-1.3v-7.9zm-9.5 3.9h1.9c.7 0 1.2-.6 1.2-1.3 0-.7-.6-1.3-1.2-1.3h-1.9v2.6zm1.6 1.1h-1.5v2.9H474v-7.9h3.2c1.4 0 2.5 1.1 2.5 2.5 0 1-.6 1.9-1.6 2.3l1.8 3.1h-1.4l-1.6-2.9zm-8.7 1.8c1.6 0 2.8-1.2 2.8-2.8s-1.2-2.8-2.8-2.8-2.8 1.2-2.8 2.8 1.2 2.8 2.8 2.8m0 1.3c-2.3 0-4.1-1.8-4.1-4.1s1.8-4.1 4.1-4.1 4.1 1.8 4.1 4.1-1.8 4.1-4.1 4.1m.4-8.9 1.2-1.5h-1.5l-.9 1.5h1.2zm-8.4 4.8c.8 0 1.3-.6 1.3-1.4 0-.8-.6-1.4-1.3-1.4h-1.6v2.8h1.6m0-4c1.5 0 2.6 1.1 2.6 2.6s-1.1 2.6-2.6 2.6h-1.6v2.7h-1.3v-7.9h2.9m-8.8 6.8c1.6 0 2.8-1.2 2.8-2.8s-1.2-2.8-2.8-2.8c-1.6 0-2.8 1.2-2.8 2.8s1.2 2.8 2.8 2.8m0 1.3c-2.3 0-4.1-1.8-4.1-4.1s1.8-4.1 4.1-4.1 4.1 1.8 4.1 4.1-1.8 4.1-4.1 4.1"></path>
                                          <g transform="translate(0 12)">
                                            <circle cx="36" cy="4" r="4" fill="#ff6d8b" fill-rule="evenodd" clip-rule="evenodd"></circle>
                                            <circle cx="52" cy="4" r="4" fill="#ffcb4f" fill-rule="evenodd" clip-rule="evenodd"></circle>
                                            <circle cx="68" cy="4" r="4" fill="#7ce8dd" fill-rule="evenodd" clip-rule="evenodd"></circle>
                                            <linearGradient id="SVGID_1_" x1="-597.251" x2="-598.251" y1="826.5" y2="826.5" gradientTransform="matrix(800 0 0 -2 478601 1674)" gradientUnits="userSpaceOnUse">
                                              <stop offset="0" stop-color="#f6f8fa" stop-opacity="0"></stop>
                                              <stop offset=".5" stop-color="#e3e7eb"></stop>
                                              <stop offset="1" stop-color="#f6f8fa" stop-opacity="0"></stop>
                                            </linearGradient>
                                            <path fill="url(#SVGID_1_)" fill-rule="evenodd" d="M0 20h800v2H0v-2z" clip-rule="evenodd"></path>
                                            <path d="M742 2h24v4h-24V2z" class="st11"></path>
                                          </g>
                                          <path fill="#f6f8fa" fill-rule="evenodd" d="M47 385h706v32H47v-32z" clip-rule="evenodd"></path>
                                          <path d="M356 399h88v4h-88v-4z" class="st11"></path>
                                    </g>
                                </svg>